<?xml version="1.0" encoding="UTF-8"?>
<svg id="Layer_1" xmlns="http://www.w3.org/2000/svg" width="172" height="154.2" version="1.1" viewBox="0 0 172 154.2">
  <!-- Generator: Adobe Illustrator 30.2.1, SVG Export Plug-In . SVG Version: 2.1.1 Build 1)  -->
  <defs>
    <style>
      .st0 {
        fill: #fff;
      }

      .st1 {
        fill: #00a6ca;
      }
    </style>
  </defs>
  <polygon class="st0" points="140.4 64 139.8 63.4 131.9 63.4 131.3 64 99.8 142.2 100.4 142.7 108.8 142.7 109.4 142.2 117.7 121.4 135.9 75.4 150.6 112.7 150.5 112.7 154 121.4 162.5 142.2 163 142.7 171.4 142.7 172 142.2 140.4 64"/>
  <polygon class="st0" points="31 91.5 31 84.8 31 78.4 31 71.8 31 64 30.5 63.4 22.9 63.4 22.3 64 22.3 71.4 22.3 86.8 22.3 101.6 22.3 109.9 22.3 142.3 22.9 142.9 30.5 142.9 31 142.3 31 110 31 102 31 91.5"/>
  <polygon class="st0" points="51.8 64 51.3 63.4 42.9 63.4 42.3 64 74 142.3 74.5 142.9 82.5 142.9 83.1 142.3 114.6 64 114 63.4 105.6 63.4 83.7 117.6 78.5 130.9 63.8 93.5 63.8 93.5 60.4 84.8 60.3 84.8 51.8 64"/>
  <path class="st1" d="M26.3,57.4c0-9.2,7.5-16.7,16.7-16.7-9.2,0-16.7-7.5-16.7-16.7,0,9.2-7.5,16.7-16.7,16.7,9.2,0,16.7,7.5,16.7,16.7Z"/>
  <path class="st1" d="M43,31.1c0-3.9,3.2-7,7-7-3.9,0-7-3.2-7-7,0,3.9-3.2,7-7,7,3.9,0,7,3.2,7,7Z"/>
  <path class="st1" d="M9.6,30.5c0-5.3,4.3-9.6,9.6-9.6-5.3,0-9.6-4.3-9.6-9.6,0,5.3-4.3,9.6-9.6,9.6,5.3,0,9.6,4.3,9.6,9.6Z"/>
</svg>